<svg width="346" height="131" viewBox="0 0 346 131" fill="none" xmlns="http://www.w3.org/2000/svg">
<path d="M153.977 47.7534C153.644 47.7534 153.344 47.6368 153.077 47.4034C152.844 47.1701 152.727 46.8701 152.727 46.5034V14.0034C152.727 13.6367 152.844 13.3367 153.077 13.1034C153.344 12.8701 153.644 12.7534 153.977 12.7534H158.627C159.127 12.7534 159.494 12.8867 159.727 13.1534C159.994 13.4201 160.177 13.6201 160.277 13.7534L169.477 30.7034L178.777 13.7534C178.844 13.6201 178.994 13.4201 179.227 13.1534C179.494 12.8867 179.877 12.7534 180.377 12.7534H185.027C185.394 12.7534 185.694 12.8701 185.927 13.1034C186.161 13.3367 186.277 13.6367 186.277 14.0034V46.5034C186.277 46.8701 186.161 47.1701 185.927 47.4034C185.694 47.6368 185.394 47.7534 185.027 47.7534H179.927C179.594 47.7534 179.311 47.6368 179.077 47.4034C178.844 47.1701 178.727 46.8701 178.727 46.5034V26.3034L172.377 38.2034C172.211 38.5034 171.994 38.7701 171.727 39.0034C171.461 39.2368 171.111 39.3534 170.677 39.3534H168.327C167.894 39.3534 167.544 39.2368 167.277 39.0034C167.011 38.7701 166.794 38.5034 166.627 38.2034L160.277 26.3034V46.5034C160.277 46.8701 160.161 47.1701 159.927 47.4034C159.694 47.6368 159.411 47.7534 159.077 47.7534H153.977ZM200.794 48.2534C199.027 48.2534 197.444 47.9201 196.044 47.2534C194.644 46.5534 193.527 45.6201 192.694 44.4534C191.861 43.2868 191.444 41.9868 191.444 40.5534C191.444 38.1868 192.394 36.3201 194.294 34.9534C196.227 33.5868 198.761 32.6534 201.894 32.1534L208.444 31.2034V30.3034C208.444 29.0034 208.144 28.0034 207.544 27.3034C206.944 26.6034 205.894 26.2534 204.394 26.2534C203.294 26.2534 202.411 26.4701 201.744 26.9034C201.077 27.3368 200.561 27.9034 200.194 28.6034C199.927 29.0368 199.544 29.2534 199.044 29.2534H194.294C193.927 29.2534 193.644 29.1534 193.444 28.9534C193.244 28.7201 193.161 28.4534 193.194 28.1534C193.194 27.5868 193.411 26.9201 193.844 26.1534C194.277 25.3868 194.944 24.6368 195.844 23.9034C196.744 23.1368 197.894 22.5034 199.294 22.0034C200.694 21.5034 202.411 21.2534 204.444 21.2534C206.544 21.2534 208.344 21.5034 209.844 22.0034C211.344 22.5034 212.544 23.2034 213.444 24.1034C214.344 25.0034 215.011 26.0534 215.444 27.2534C215.877 28.4201 216.094 29.6867 216.094 31.0534V46.5034C216.094 46.8701 215.977 47.1701 215.744 47.4034C215.511 47.6368 215.211 47.7534 214.844 47.7534H209.944C209.611 47.7534 209.327 47.6368 209.094 47.4034C208.861 47.1701 208.744 46.8701 208.744 46.5034V44.6534C208.311 45.2868 207.727 45.8868 206.994 46.4534C206.261 46.9868 205.377 47.4201 204.344 47.7534C203.344 48.0868 202.161 48.2534 200.794 48.2534ZM202.794 43.0534C203.894 43.0534 204.877 42.8201 205.744 42.3534C206.611 41.8868 207.294 41.1701 207.794 40.2034C208.294 39.2368 208.544 38.0201 208.544 36.5534V35.7034L203.894 36.4534C202.094 36.7534 200.777 37.2034 199.944 37.8034C199.111 38.4034 198.694 39.1368 198.694 40.0034C198.694 40.6368 198.877 41.1868 199.244 41.6534C199.644 42.1201 200.161 42.4701 200.794 42.7034C201.427 42.9368 202.094 43.0534 202.794 43.0534ZM226.117 57.2534C225.85 57.2534 225.6 57.1534 225.367 56.9534C225.167 56.7534 225.067 56.5034 225.067 56.2034C225.067 56.1368 225.083 56.0368 225.117 55.9034C225.15 55.8034 225.2 55.6701 225.267 55.5034L229.167 46.1534L219.567 23.5034C219.467 23.2368 219.417 23.0201 219.417 22.8534C219.45 22.5534 219.567 22.3034 219.767 22.1034C219.967 21.8701 220.217 21.7534 220.517 21.7534H225.367C225.8 21.7534 226.117 21.8701 226.317 22.1034C226.517 22.3034 226.667 22.5201 226.767 22.7534L232.967 38.2534L239.317 22.7534C239.45 22.4868 239.617 22.2534 239.817 22.0534C240.017 21.8534 240.333 21.7534 240.767 21.7534H245.517C245.817 21.7534 246.067 21.8701 246.267 22.1034C246.5 22.3034 246.617 22.5368 246.617 22.8034C246.617 22.9701 246.55 23.2034 246.417 23.5034L232.267 56.2534C232.167 56.5201 232 56.7534 231.767 56.9534C231.567 57.1534 231.25 57.2534 230.817 57.2534H226.117ZM257.191 48.2534C255.424 48.2534 253.841 47.9201 252.441 47.2534C251.041 46.5534 249.924 45.6201 249.091 44.4534C248.257 43.2868 247.841 41.9868 247.841 40.5534C247.841 38.1868 248.791 36.3201 250.691 34.9534C252.624 33.5868 255.157 32.6534 258.291 32.1534L264.841 31.2034V30.3034C264.841 29.0034 264.541 28.0034 263.941 27.3034C263.341 26.6034 262.291 26.2534 260.791 26.2534C259.691 26.2534 258.807 26.4701 258.141 26.9034C257.474 27.3368 256.957 27.9034 256.591 28.6034C256.324 29.0368 255.941 29.2534 255.441 29.2534H250.691C250.324 29.2534 250.041 29.1534 249.841 28.9534C249.641 28.7201 249.557 28.4534 249.591 28.1534C249.591 27.5868 249.807 26.9201 250.241 26.1534C250.674 25.3868 251.341 24.6368 252.241 23.9034C253.141 23.1368 254.291 22.5034 255.691 22.0034C257.091 21.5034 258.807 21.2534 260.841 21.2534C262.941 21.2534 264.741 21.5034 266.241 22.0034C267.741 22.5034 268.941 23.2034 269.841 24.1034C270.741 25.0034 271.407 26.0534 271.841 27.2534C272.274 28.4201 272.491 29.6867 272.491 31.0534V46.5034C272.491 46.8701 272.374 47.1701 272.141 47.4034C271.907 47.6368 271.607 47.7534 271.241 47.7534H266.341C266.007 47.7534 265.724 47.6368 265.491 47.4034C265.257 47.1701 265.141 46.8701 265.141 46.5034V44.6534C264.707 45.2868 264.124 45.8868 263.391 46.4534C262.657 46.9868 261.774 47.4201 260.741 47.7534C259.741 48.0868 258.557 48.2534 257.191 48.2534ZM259.191 43.0534C260.291 43.0534 261.274 42.8201 262.141 42.3534C263.007 41.8868 263.691 41.1701 264.191 40.2034C264.691 39.2368 264.941 38.0201 264.941 36.5534V35.7034L260.291 36.4534C258.491 36.7534 257.174 37.2034 256.341 37.8034C255.507 38.4034 255.091 39.1368 255.091 40.0034C255.091 40.6368 255.274 41.1868 255.641 41.6534C256.041 42.1201 256.557 42.4701 257.191 42.7034C257.824 42.9368 258.491 43.0534 259.191 43.0534ZM279.745 47.7534C279.411 47.7534 279.128 47.6368 278.895 47.4034C278.661 47.1701 278.545 46.8701 278.545 46.5034V23.0034C278.545 22.6701 278.661 22.3868 278.895 22.1534C279.128 21.8867 279.411 21.7534 279.745 21.7534H284.645C284.978 21.7534 285.261 21.8867 285.495 22.1534C285.761 22.3868 285.895 22.6701 285.895 23.0034V25.0034C286.728 23.9701 287.745 23.1701 288.945 22.6034C290.178 22.0367 291.595 21.7534 293.195 21.7534H295.345C295.678 21.7534 295.961 21.8701 296.195 22.1034C296.428 22.3367 296.545 22.6367 296.545 23.0034V27.3034C296.545 27.6701 296.428 27.9701 296.195 28.2034C295.961 28.4368 295.678 28.5534 295.345 28.5534H290.945C289.478 28.5534 288.328 28.9701 287.495 29.8034C286.661 30.6034 286.245 31.7534 286.245 33.2534V46.5034C286.245 46.8701 286.128 47.1701 285.895 47.4034C285.661 47.6368 285.361 47.7534 284.995 47.7534H279.745ZM307.484 48.2534C305.717 48.2534 304.134 47.9201 302.734 47.2534C301.334 46.5534 300.217 45.6201 299.384 44.4534C298.55 43.2868 298.134 41.9868 298.134 40.5534C298.134 38.1868 299.084 36.3201 300.984 34.9534C302.917 33.5868 305.45 32.6534 308.584 32.1534L315.134 31.2034V30.3034C315.134 29.0034 314.834 28.0034 314.234 27.3034C313.634 26.6034 312.584 26.2534 311.084 26.2534C309.984 26.2534 309.1 26.4701 308.434 26.9034C307.767 27.3368 307.25 27.9034 306.884 28.6034C306.617 29.0368 306.234 29.2534 305.734 29.2534H300.984C300.617 29.2534 300.334 29.1534 300.134 28.9534C299.934 28.7201 299.85 28.4534 299.884 28.1534C299.884 27.5868 300.1 26.9201 300.534 26.1534C300.967 25.3868 301.634 24.6368 302.534 23.9034C303.434 23.1368 304.584 22.5034 305.984 22.0034C307.384 21.5034 309.1 21.2534 311.134 21.2534C313.234 21.2534 315.034 21.5034 316.534 22.0034C318.034 22.5034 319.234 23.2034 320.134 24.1034C321.034 25.0034 321.7 26.0534 322.134 27.2534C322.567 28.4201 322.784 29.6867 322.784 31.0534V46.5034C322.784 46.8701 322.667 47.1701 322.434 47.4034C322.2 47.6368 321.9 47.7534 321.534 47.7534H316.634C316.3 47.7534 316.017 47.6368 315.784 47.4034C315.55 47.1701 315.434 46.8701 315.434 46.5034V44.6534C315 45.2868 314.417 45.8868 313.684 46.4534C312.95 46.9868 312.067 47.4201 311.034 47.7534C310.034 48.0868 308.85 48.2534 307.484 48.2534ZM309.484 43.0534C310.584 43.0534 311.567 42.8201 312.434 42.3534C313.3 41.8868 313.984 41.1701 314.484 40.2034C314.984 39.2368 315.234 38.0201 315.234 36.5534V35.7034L310.584 36.4534C308.784 36.7534 307.467 37.2034 306.634 37.8034C305.8 38.4034 305.384 39.1368 305.384 40.0034C305.384 40.6368 305.567 41.1868 305.934 41.6534C306.334 42.1201 306.85 42.4701 307.484 42.7034C308.117 42.9368 308.784 43.0534 309.484 43.0534Z" fill="#262626"/>
<path d="M161.691 91.7981C161.391 91.7981 161.141 91.6981 160.941 91.4981C160.741 91.2648 160.641 91.0148 160.641 90.7481C160.641 90.5814 160.658 90.4314 160.691 90.2981L172.591 58.1481C172.691 57.7814 172.891 57.4648 173.191 57.1981C173.491 56.9314 173.908 56.7981 174.441 56.7981H180.841C181.374 56.7981 181.791 56.9314 182.091 57.1981C182.391 57.4648 182.591 57.7814 182.691 58.1481L194.591 90.2981C194.624 90.4314 194.641 90.5814 194.641 90.7481C194.641 91.0148 194.541 91.2648 194.341 91.4981C194.141 91.6981 193.891 91.7981 193.591 91.7981H188.391C187.891 91.7981 187.524 91.6814 187.291 91.4481C187.058 91.2148 186.908 90.9981 186.841 90.7981L184.691 85.1981H170.591L168.441 90.7981C168.374 90.9981 168.224 91.2148 167.991 91.4481C167.758 91.6814 167.391 91.7981 166.891 91.7981H161.691ZM172.441 78.7481H182.791L177.641 64.3481L172.441 78.7481ZM210.829 102.798C208.363 102.798 206.313 102.465 204.679 101.798C203.046 101.165 201.746 100.381 200.779 99.4481C199.846 98.5481 199.179 97.6481 198.779 96.7481C198.379 95.8481 198.163 95.1481 198.129 94.6481C198.096 94.2814 198.213 93.9814 198.479 93.7481C198.746 93.5148 199.046 93.3981 199.379 93.3981H204.729C205.029 93.3981 205.279 93.4648 205.479 93.5981C205.713 93.7648 205.896 94.0314 206.029 94.3981C206.196 94.7981 206.429 95.2148 206.729 95.6481C207.029 96.1148 207.479 96.4981 208.079 96.7981C208.713 97.0981 209.546 97.2481 210.579 97.2481C211.746 97.2481 212.713 97.0814 213.479 96.7481C214.246 96.4148 214.813 95.8481 215.179 95.0481C215.579 94.2481 215.779 93.1648 215.779 91.7981V88.4481C214.979 89.3148 213.963 90.0314 212.729 90.5981C211.529 91.1648 210.046 91.4481 208.279 91.4481C206.546 91.4481 205.013 91.1814 203.679 90.6481C202.379 90.0814 201.296 89.2981 200.429 88.2981C199.563 87.2648 198.896 86.0314 198.429 84.5981C197.963 83.1648 197.696 81.5481 197.629 79.7481C197.596 78.8481 197.596 77.9648 197.629 77.0981C197.696 75.3648 197.963 73.7814 198.429 72.3481C198.896 70.9148 199.563 69.6814 200.429 68.6481C201.296 67.5814 202.379 66.7648 203.679 66.1981C205.013 65.5981 206.546 65.2981 208.279 65.2981C210.113 65.2981 211.679 65.6481 212.979 66.3481C214.279 67.0481 215.346 67.9148 216.179 68.9481V67.0481C216.179 66.7148 216.296 66.4314 216.529 66.1981C216.763 65.9314 217.046 65.7981 217.379 65.7981H222.279C222.613 65.7981 222.896 65.9314 223.129 66.1981C223.396 66.4314 223.529 66.7148 223.529 67.0481L223.579 91.0981C223.579 93.5981 223.096 95.7148 222.129 97.4481C221.163 99.1814 219.729 100.498 217.829 101.398C215.963 102.331 213.629 102.798 210.829 102.798ZM210.579 85.5981C211.779 85.5981 212.746 85.3314 213.479 84.7981C214.246 84.2314 214.813 83.5314 215.179 82.6981C215.546 81.8314 215.746 80.9314 215.779 79.9981C215.813 79.6314 215.829 79.1148 215.829 78.4481C215.829 77.7481 215.813 77.2148 215.779 76.8481C215.746 75.9148 215.546 75.0314 215.179 74.1981C214.813 73.3314 214.246 72.6314 213.479 72.0981C212.746 71.5648 211.779 71.2981 210.579 71.2981C209.313 71.2981 208.313 71.5814 207.579 72.1481C206.846 72.6814 206.313 73.3981 205.979 74.2981C205.646 75.1981 205.446 76.1814 205.379 77.2481C205.346 78.0481 205.346 78.8314 205.379 79.5981C205.446 80.6981 205.646 81.6981 205.979 82.5981C206.313 83.4981 206.846 84.2314 207.579 84.7981C208.313 85.3314 209.313 85.5981 210.579 85.5981ZM240.004 92.2981C238.071 92.2981 236.354 91.8648 234.854 90.9981C233.388 90.0981 232.238 88.8148 231.404 87.1481C230.604 85.4481 230.204 83.3981 230.204 80.9981V67.0481C230.204 66.6814 230.321 66.3814 230.554 66.1481C230.788 65.9148 231.071 65.7981 231.404 65.7981H236.704C237.071 65.7981 237.371 65.9148 237.604 66.1481C237.838 66.3814 237.954 66.6814 237.954 67.0481V80.6981C237.954 84.4314 239.588 86.2981 242.854 86.2981C244.421 86.2981 245.654 85.8148 246.554 84.8481C247.488 83.8481 247.954 82.4648 247.954 80.6981V67.0481C247.954 66.6814 248.071 66.3814 248.304 66.1481C248.538 65.9148 248.838 65.7981 249.204 65.7981H254.504C254.838 65.7981 255.121 65.9148 255.354 66.1481C255.588 66.3814 255.704 66.6814 255.704 67.0481V90.5481C255.704 90.9148 255.588 91.2148 255.354 91.4481C255.121 91.6814 254.838 91.7981 254.504 91.7981H249.604C249.238 91.7981 248.938 91.6814 248.704 91.4481C248.471 91.2148 248.354 90.9148 248.354 90.5481V88.5981C247.488 89.7981 246.371 90.7148 245.004 91.3481C243.638 91.9814 241.971 92.2981 240.004 92.2981ZM274.172 92.2981C270.339 92.2981 267.289 91.2314 265.022 89.0981C262.789 86.9648 261.606 83.8648 261.472 79.7981C261.472 79.5314 261.472 79.1814 261.472 78.7481C261.472 78.2814 261.472 77.9148 261.472 77.6481C261.606 75.0814 262.189 72.8814 263.222 71.0481C264.256 69.1814 265.706 67.7648 267.572 66.7981C269.439 65.7981 271.622 65.2981 274.122 65.2981C276.922 65.2981 279.256 65.8814 281.122 67.0481C283.022 68.1814 284.439 69.7481 285.372 71.7481C286.339 73.7148 286.822 75.9814 286.822 78.5481V79.6981C286.822 80.0314 286.689 80.3148 286.422 80.5481C286.189 80.7814 285.906 80.8981 285.572 80.8981H269.222C269.222 80.9314 269.222 80.9981 269.222 81.0981C269.222 81.1648 269.222 81.2314 269.222 81.2981C269.256 82.3648 269.456 83.3481 269.822 84.2481C270.222 85.1148 270.772 85.8148 271.472 86.3481C272.206 86.8814 273.072 87.1481 274.072 87.1481C274.906 87.1481 275.589 87.0314 276.122 86.7981C276.656 86.5648 277.089 86.2814 277.422 85.9481C277.789 85.6148 278.056 85.3314 278.222 85.0981C278.522 84.7648 278.756 84.5648 278.922 84.4981C279.122 84.3981 279.422 84.3481 279.822 84.3481H285.022C285.356 84.3481 285.622 84.4481 285.822 84.6481C286.056 84.8148 286.156 85.0648 286.122 85.3981C286.089 85.9314 285.806 86.5981 285.272 87.3981C284.772 88.1648 284.022 88.9314 283.022 89.6981C282.022 90.4314 280.772 91.0481 279.272 91.5481C277.806 92.0481 276.106 92.2981 274.172 92.2981ZM269.222 76.3481H279.022V76.2481C279.022 75.0481 278.822 74.0148 278.422 73.1481C278.056 72.2481 277.506 71.5481 276.772 71.0481C276.039 70.5481 275.156 70.2981 274.122 70.2981C273.089 70.2981 272.206 70.5481 271.472 71.0481C270.739 71.5481 270.172 72.2481 269.772 73.1481C269.406 74.0148 269.222 75.0481 269.222 76.2481V76.3481ZM293.595 91.7981C293.262 91.7981 292.979 91.6814 292.745 91.4481C292.512 91.2148 292.395 90.9148 292.395 90.5481V67.0481C292.395 66.7148 292.512 66.4314 292.745 66.1981C292.979 65.9314 293.262 65.7981 293.595 65.7981H298.495C298.829 65.7981 299.112 65.9314 299.345 66.1981C299.612 66.4314 299.745 66.7148 299.745 67.0481V69.0481C300.579 68.0148 301.595 67.2148 302.795 66.6481C304.029 66.0814 305.445 65.7981 307.045 65.7981H309.195C309.529 65.7981 309.812 65.9148 310.045 66.1481C310.279 66.3814 310.395 66.6814 310.395 67.0481V71.3481C310.395 71.7148 310.279 72.0148 310.045 72.2481C309.812 72.4814 309.529 72.5981 309.195 72.5981H304.795C303.329 72.5981 302.179 73.0148 301.345 73.8481C300.512 74.6481 300.095 75.7981 300.095 77.2981V90.5481C300.095 90.9148 299.979 91.2148 299.745 91.4481C299.512 91.6814 299.212 91.7981 298.845 91.7981H293.595ZM321.909 92.2981C320.143 92.2981 318.559 91.9648 317.159 91.2981C315.759 90.5981 314.643 89.6648 313.809 88.4981C312.976 87.3314 312.559 86.0314 312.559 84.5981C312.559 82.2314 313.509 80.3648 315.409 78.9981C317.343 77.6314 319.876 76.6981 323.009 76.1981L329.559 75.2481V74.3481C329.559 73.0481 329.259 72.0481 328.659 71.3481C328.059 70.6481 327.009 70.2981 325.509 70.2981C324.409 70.2981 323.526 70.5148 322.859 70.9481C322.193 71.3814 321.676 71.9481 321.309 72.6481C321.043 73.0814 320.659 73.2981 320.159 73.2981H315.409C315.043 73.2981 314.759 73.1981 314.559 72.9981C314.359 72.7648 314.276 72.4981 314.309 72.1981C314.309 71.6314 314.526 70.9648 314.959 70.1981C315.393 69.4314 316.059 68.6814 316.959 67.9481C317.859 67.1814 319.009 66.5481 320.409 66.0481C321.809 65.5481 323.526 65.2981 325.559 65.2981C327.659 65.2981 329.459 65.5481 330.959 66.0481C332.459 66.5481 333.659 67.2481 334.559 68.1481C335.459 69.0481 336.126 70.0981 336.559 71.2981C336.993 72.4648 337.209 73.7314 337.209 75.0981V90.5481C337.209 90.9148 337.093 91.2148 336.859 91.4481C336.626 91.6814 336.326 91.7981 335.959 91.7981H331.059C330.726 91.7981 330.443 91.6814 330.209 91.4481C329.976 91.2148 329.859 90.9148 329.859 90.5481V88.6981C329.426 89.3314 328.843 89.9314 328.109 90.4981C327.376 91.0314 326.493 91.4648 325.459 91.7981C324.459 92.1314 323.276 92.2981 321.909 92.2981ZM323.909 87.0981C325.009 87.0981 325.993 86.8648 326.859 86.3981C327.726 85.9314 328.409 85.2148 328.909 84.2481C329.409 83.2814 329.659 82.0648 329.659 80.5981V79.7481L325.009 80.4981C323.209 80.7981 321.893 81.2481 321.059 81.8481C320.226 82.4481 319.809 83.1814 319.809 84.0481C319.809 84.6814 319.993 85.2314 320.359 85.6981C320.759 86.1648 321.276 86.5148 321.909 86.7481C322.543 86.9814 323.209 87.0981 323.909 87.0981Z" fill="#262626"/>
<path d="M84.9389 94.5383L71.0517 108.219C69.9552 109.299 70.7201 111.166 72.2594 111.166H100.843C101.793 111.166 102.564 110.396 102.564 109.445V95.7642C102.564 94.8138 101.793 94.0433 100.843 94.0433H86.1466C85.6946 94.0433 85.2608 94.2211 84.9389 94.5383Z" fill="#DA26B3"/>
<path d="M0 92.4946V9.72086C0 8.77046 0.770458 8 1.72087 8H16.3221C16.7795 8 17.2181 8.18209 17.541 8.50605L67.5509 58.6825C67.7945 58.9268 67.9496 59.2263 68.0158 59.5409L118.407 8.51171C118.73 8.18429 119.171 8 119.631 8H135.088C136.038 8 136.809 8.77046 136.809 9.72087V126.138C136.809 127.088 136.038 127.858 135.088 127.858H120.633C119.682 127.858 118.912 127.088 118.912 126.138V47.2662C118.912 45.7322 117.057 44.9648 115.973 46.0506L35.5268 126.66C34.8633 127.325 33.7894 127.335 33.1136 126.683L18.289 112.375C17.5996 111.709 17.5864 110.609 18.2596 109.927L51.2897 76.4789C51.0255 76.402 50.776 76.2606 50.566 76.0542L19.9636 45.982C18.8753 44.9125 17.0366 45.6835 17.0366 47.2094V92.4946C17.0366 93.445 16.2661 94.2154 15.3157 94.2154H1.72087C0.77046 94.2154 0 93.445 0 92.4946Z" fill="#D9D9D9"/>
<path d="M0 92.4946V9.72086C0 8.77046 0.770458 8 1.72087 8H16.3221C16.7795 8 17.2181 8.18209 17.541 8.50605L67.5509 58.6825C67.7945 58.9268 67.9496 59.2263 68.0158 59.5409L118.407 8.51171C118.73 8.18429 119.171 8 119.631 8H135.088C136.038 8 136.809 8.77046 136.809 9.72087V126.138C136.809 127.088 136.038 127.858 135.088 127.858H120.633C119.682 127.858 118.912 127.088 118.912 126.138V47.2662C118.912 45.7322 117.057 44.9648 115.973 46.0506L35.5268 126.66C34.8633 127.325 33.7894 127.335 33.1136 126.683L18.289 112.375C17.5996 111.709 17.5864 110.609 18.2596 109.927L51.2897 76.4789C51.0255 76.402 50.776 76.2606 50.566 76.0542L19.9636 45.982C18.8753 44.9125 17.0366 45.6835 17.0366 47.2094V92.4946C17.0366 93.445 16.2661 94.2154 15.3157 94.2154H1.72087C0.77046 94.2154 0 93.445 0 92.4946Z" fill="#262626"/>
<path d="M154.55 125C154.383 125 154.242 124.942 154.125 124.825C154.008 124.708 153.95 124.567 153.95 124.4V108.125C153.95 107.942 154.008 107.792 154.125 107.675C154.242 107.558 154.383 107.5 154.55 107.5H161.25C162.55 107.5 163.683 107.708 164.65 108.125C165.617 108.525 166.367 109.142 166.9 109.975C167.433 110.792 167.7 111.817 167.7 113.05C167.7 114.3 167.433 115.333 166.9 116.15C166.367 116.95 165.617 117.55 164.65 117.95C163.683 118.35 162.55 118.55 161.25 118.55H157.525V124.4C157.525 124.567 157.467 124.708 157.35 124.825C157.25 124.942 157.108 125 156.925 125H154.55ZM157.475 115.775H161.125C162.092 115.775 162.833 115.55 163.35 115.1C163.867 114.633 164.125 113.95 164.125 113.05C164.125 112.217 163.883 111.55 163.4 111.05C162.917 110.533 162.158 110.275 161.125 110.275H157.475V115.775ZM175.559 125.25C173.709 125.25 172.242 124.717 171.159 123.65C170.075 122.583 169.492 121.067 169.409 119.1C169.392 118.933 169.384 118.725 169.384 118.475C169.384 118.208 169.392 118 169.409 117.85C169.475 116.6 169.759 115.517 170.259 114.6C170.775 113.683 171.484 112.983 172.384 112.5C173.284 112 174.342 111.75 175.559 111.75C176.909 111.75 178.042 112.033 178.959 112.6C179.875 113.15 180.567 113.925 181.034 114.925C181.5 115.908 181.734 117.05 181.734 118.35V118.875C181.734 119.042 181.675 119.183 181.559 119.3C181.442 119.417 181.292 119.475 181.109 119.475H172.809C172.809 119.475 172.809 119.5 172.809 119.55C172.809 119.6 172.809 119.642 172.809 119.675C172.825 120.258 172.934 120.8 173.134 121.3C173.35 121.783 173.659 122.175 174.059 122.475C174.475 122.775 174.967 122.925 175.534 122.925C176 122.925 176.392 122.858 176.709 122.725C177.025 122.575 177.284 122.408 177.484 122.225C177.684 122.042 177.825 121.892 177.909 121.775C178.059 121.575 178.175 121.458 178.259 121.425C178.359 121.375 178.5 121.35 178.684 121.35H180.834C181 121.35 181.134 121.4 181.234 121.5C181.35 121.6 181.4 121.725 181.384 121.875C181.367 122.142 181.225 122.467 180.959 122.85C180.709 123.233 180.342 123.608 179.859 123.975C179.375 124.342 178.767 124.65 178.034 124.9C177.317 125.133 176.492 125.25 175.559 125.25ZM172.809 117.375H178.334V117.3C178.334 116.65 178.225 116.083 178.009 115.6C177.792 115.117 177.475 114.733 177.059 114.45C176.642 114.167 176.142 114.025 175.559 114.025C174.975 114.025 174.475 114.167 174.059 114.45C173.642 114.733 173.325 115.117 173.109 115.6C172.909 116.083 172.809 116.65 172.809 117.3V117.375ZM184.987 125C184.821 125 184.679 124.942 184.562 124.825C184.446 124.708 184.387 124.567 184.387 124.4V112.625C184.387 112.442 184.446 112.292 184.562 112.175C184.679 112.058 184.821 112 184.987 112H187.012C187.179 112 187.321 112.058 187.437 112.175C187.571 112.292 187.637 112.442 187.637 112.625V113.65C188.021 113.117 188.512 112.708 189.112 112.425C189.729 112.142 190.437 112 191.237 112H192.262C192.446 112 192.587 112.058 192.687 112.175C192.804 112.292 192.862 112.433 192.862 112.6V114.4C192.862 114.567 192.804 114.708 192.687 114.825C192.587 114.942 192.446 115 192.262 115H190.312C189.512 115 188.887 115.225 188.437 115.675C188.004 116.125 187.787 116.742 187.787 117.525V124.4C187.787 124.567 187.729 124.708 187.612 124.825C187.496 124.942 187.346 125 187.162 125H184.987ZM199.737 125.25C198.737 125.25 197.879 125.133 197.162 124.9C196.462 124.667 195.887 124.375 195.437 124.025C194.987 123.675 194.654 123.325 194.437 122.975C194.22 122.625 194.104 122.333 194.087 122.1C194.07 121.917 194.12 121.775 194.237 121.675C194.37 121.558 194.512 121.5 194.662 121.5H196.637C196.704 121.5 196.762 121.508 196.812 121.525C196.862 121.542 196.929 121.592 197.012 121.675C197.229 121.858 197.454 122.05 197.687 122.25C197.937 122.45 198.229 122.625 198.562 122.775C198.895 122.908 199.312 122.975 199.812 122.975C200.462 122.975 201.004 122.85 201.437 122.6C201.887 122.333 202.112 121.958 202.112 121.475C202.112 121.125 202.012 120.842 201.812 120.625C201.629 120.408 201.279 120.217 200.762 120.05C200.245 119.867 199.512 119.675 198.562 119.475C197.629 119.258 196.854 118.983 196.237 118.65C195.62 118.317 195.162 117.9 194.862 117.4C194.562 116.9 194.412 116.317 194.412 115.65C194.412 115 194.604 114.383 194.987 113.8C195.387 113.2 195.97 112.708 196.737 112.325C197.52 111.942 198.487 111.75 199.637 111.75C200.537 111.75 201.32 111.867 201.987 112.1C202.654 112.317 203.204 112.592 203.637 112.925C204.087 113.258 204.429 113.6 204.662 113.95C204.895 114.283 205.02 114.575 205.037 114.825C205.054 115.008 205.004 115.158 204.887 115.275C204.77 115.375 204.637 115.425 204.487 115.425H202.637C202.554 115.425 202.479 115.408 202.412 115.375C202.345 115.342 202.279 115.3 202.212 115.25C202.029 115.083 201.829 114.908 201.612 114.725C201.395 114.542 201.129 114.383 200.812 114.25C200.512 114.1 200.112 114.025 199.612 114.025C198.979 114.025 198.495 114.167 198.162 114.45C197.829 114.717 197.662 115.058 197.662 115.475C197.662 115.758 197.737 116.008 197.887 116.225C198.054 116.425 198.379 116.617 198.862 116.8C199.345 116.983 200.079 117.175 201.062 117.375C202.179 117.575 203.062 117.875 203.712 118.275C204.379 118.658 204.845 119.108 205.112 119.625C205.395 120.125 205.537 120.683 205.537 121.3C205.537 122.05 205.312 122.725 204.862 123.325C204.429 123.925 203.779 124.4 202.912 124.75C202.062 125.083 201.004 125.25 199.737 125.25ZM213.868 125.25C212.534 125.25 211.409 125.017 210.493 124.55C209.593 124.083 208.901 123.425 208.418 122.575C207.951 121.725 207.684 120.733 207.618 119.6C207.601 119.3 207.593 118.933 207.593 118.5C207.593 118.067 207.601 117.7 207.618 117.4C207.684 116.25 207.959 115.258 208.443 114.425C208.943 113.575 209.643 112.917 210.543 112.45C211.459 111.983 212.568 111.75 213.868 111.75C215.168 111.75 216.268 111.983 217.168 112.45C218.084 112.917 218.784 113.575 219.268 114.425C219.768 115.258 220.051 116.25 220.118 117.4C220.134 117.7 220.143 118.067 220.143 118.5C220.143 118.933 220.134 119.3 220.118 119.6C220.051 120.733 219.776 121.725 219.293 122.575C218.826 123.425 218.134 124.083 217.218 124.55C216.318 125.017 215.201 125.25 213.868 125.25ZM213.868 122.775C214.751 122.775 215.434 122.5 215.918 121.95C216.401 121.383 216.668 120.558 216.718 119.475C216.734 119.225 216.743 118.9 216.743 118.5C216.743 118.1 216.734 117.775 216.718 117.525C216.668 116.458 216.401 115.642 215.918 115.075C215.434 114.508 214.751 114.225 213.868 114.225C212.984 114.225 212.301 114.508 211.818 115.075C211.334 115.642 211.068 116.458 211.018 117.525C211.001 117.775 210.993 118.1 210.993 118.5C210.993 118.9 211.001 119.225 211.018 119.475C211.068 120.558 211.334 121.383 211.818 121.95C212.301 122.5 212.984 122.775 213.868 122.775ZM223.513 125C223.346 125 223.204 124.942 223.088 124.825C222.971 124.708 222.913 124.567 222.913 124.4V112.6C222.913 112.433 222.971 112.292 223.088 112.175C223.204 112.058 223.346 112 223.513 112H225.563C225.729 112 225.871 112.058 225.988 112.175C226.104 112.292 226.163 112.433 226.163 112.6V113.625C226.596 113.092 227.146 112.65 227.813 112.3C228.496 111.933 229.338 111.75 230.338 111.75C231.354 111.75 232.238 111.983 232.988 112.45C233.738 112.9 234.313 113.542 234.713 114.375C235.129 115.208 235.338 116.208 235.338 117.375V124.4C235.338 124.567 235.279 124.708 235.163 124.825C235.046 124.942 234.904 125 234.738 125H232.538C232.371 125 232.229 124.942 232.113 124.825C231.996 124.708 231.938 124.567 231.938 124.4V117.525C231.938 116.558 231.696 115.8 231.213 115.25C230.746 114.7 230.063 114.425 229.163 114.425C228.296 114.425 227.604 114.7 227.088 115.25C226.571 115.8 226.313 116.558 226.313 117.525V124.4C226.313 124.567 226.254 124.708 226.138 124.825C226.021 124.942 225.879 125 225.713 125H223.513ZM242.288 125.25C241.422 125.25 240.638 125.083 239.938 124.75C239.238 124.4 238.68 123.942 238.263 123.375C237.863 122.792 237.663 122.142 237.663 121.425C237.663 120.258 238.13 119.333 239.063 118.65C240.013 117.95 241.263 117.483 242.813 117.25L246.238 116.75V116.225C246.238 115.525 246.063 114.983 245.713 114.6C245.363 114.217 244.763 114.025 243.913 114.025C243.313 114.025 242.822 114.15 242.438 114.4C242.072 114.633 241.797 114.95 241.613 115.35C241.48 115.567 241.288 115.675 241.038 115.675H239.063C238.88 115.675 238.738 115.625 238.638 115.525C238.555 115.425 238.513 115.292 238.513 115.125C238.53 114.858 238.638 114.533 238.838 114.15C239.038 113.767 239.355 113.4 239.788 113.05C240.222 112.683 240.78 112.375 241.463 112.125C242.147 111.875 242.972 111.75 243.938 111.75C244.988 111.75 245.872 111.883 246.588 112.15C247.322 112.4 247.905 112.742 248.338 113.175C248.772 113.608 249.088 114.117 249.288 114.7C249.488 115.283 249.588 115.9 249.588 116.55V124.4C249.588 124.567 249.53 124.708 249.413 124.825C249.297 124.942 249.155 125 248.988 125H246.963C246.78 125 246.63 124.942 246.513 124.825C246.413 124.708 246.363 124.567 246.363 124.4V123.425C246.147 123.742 245.855 124.042 245.488 124.325C245.122 124.592 244.672 124.817 244.138 125C243.622 125.167 243.005 125.25 242.288 125.25ZM243.138 122.875C243.722 122.875 244.247 122.75 244.713 122.5C245.197 122.25 245.572 121.867 245.838 121.35C246.122 120.817 246.263 120.15 246.263 119.35V118.825L243.763 119.225C242.78 119.375 242.047 119.617 241.563 119.95C241.08 120.283 240.838 120.692 240.838 121.175C240.838 121.542 240.947 121.858 241.163 122.125C241.397 122.375 241.688 122.567 242.038 122.7C242.388 122.817 242.755 122.875 243.138 122.875ZM253.421 125C253.254 125 253.112 124.942 252.996 124.825C252.879 124.708 252.821 124.567 252.821 124.4V107.85C252.821 107.683 252.879 107.542 252.996 107.425C253.112 107.308 253.254 107.25 253.421 107.25H255.496C255.662 107.25 255.804 107.308 255.921 107.425C256.037 107.542 256.096 107.683 256.096 107.85V124.4C256.096 124.567 256.037 124.708 255.921 124.825C255.804 124.942 255.662 125 255.496 125H253.421ZM270.487 125C269.487 125 268.645 124.825 267.962 124.475C267.279 124.125 266.77 123.608 266.437 122.925C266.104 122.225 265.937 121.358 265.937 120.325V114.65H263.962C263.795 114.65 263.654 114.592 263.537 114.475C263.42 114.358 263.362 114.217 263.362 114.05V112.6C263.362 112.433 263.42 112.292 263.537 112.175C263.654 112.058 263.795 112 263.962 112H265.937V107.85C265.937 107.683 265.987 107.542 266.087 107.425C266.204 107.308 266.354 107.25 266.537 107.25H268.562C268.729 107.25 268.87 107.308 268.987 107.425C269.104 107.542 269.162 107.683 269.162 107.85V112H272.287C272.454 112 272.595 112.058 272.712 112.175C272.829 112.292 272.887 112.433 272.887 112.6V114.05C272.887 114.217 272.829 114.358 272.712 114.475C272.595 114.592 272.454 114.65 272.287 114.65H269.162V120.075C269.162 120.758 269.279 121.292 269.512 121.675C269.762 122.058 270.187 122.25 270.787 122.25H272.512C272.679 122.25 272.82 122.308 272.937 122.425C273.054 122.542 273.112 122.683 273.112 122.85V124.4C273.112 124.567 273.054 124.708 272.937 124.825C272.82 124.942 272.679 125 272.512 125H270.487ZM275.93 125C275.763 125 275.621 124.942 275.505 124.825C275.388 124.708 275.33 124.567 275.33 124.4V112.625C275.33 112.442 275.388 112.292 275.505 112.175C275.621 112.058 275.763 112 275.93 112H277.955C278.121 112 278.263 112.058 278.38 112.175C278.513 112.292 278.58 112.442 278.58 112.625V113.65C278.963 113.117 279.455 112.708 280.055 112.425C280.671 112.142 281.38 112 282.18 112H283.205C283.388 112 283.53 112.058 283.63 112.175C283.746 112.292 283.805 112.433 283.805 112.6V114.4C283.805 114.567 283.746 114.708 283.63 114.825C283.53 114.942 283.388 115 283.205 115H281.255C280.455 115 279.83 115.225 279.38 115.675C278.946 116.125 278.73 116.742 278.73 117.525V124.4C278.73 124.567 278.671 124.708 278.555 124.825C278.438 124.942 278.288 125 278.105 125H275.93ZM289.334 125.25C288.468 125.25 287.684 125.083 286.984 124.75C286.284 124.4 285.726 123.942 285.309 123.375C284.909 122.792 284.709 122.142 284.709 121.425C284.709 120.258 285.176 119.333 286.109 118.65C287.059 117.95 288.309 117.483 289.859 117.25L293.284 116.75V116.225C293.284 115.525 293.109 114.983 292.759 114.6C292.409 114.217 291.809 114.025 290.959 114.025C290.359 114.025 289.868 114.15 289.484 114.4C289.118 114.633 288.843 114.95 288.659 115.35C288.526 115.567 288.334 115.675 288.084 115.675H286.109C285.926 115.675 285.784 115.625 285.684 115.525C285.601 115.425 285.559 115.292 285.559 115.125C285.576 114.858 285.684 114.533 285.884 114.15C286.084 113.767 286.401 113.4 286.834 113.05C287.268 112.683 287.826 112.375 288.509 112.125C289.193 111.875 290.018 111.75 290.984 111.75C292.034 111.75 292.918 111.883 293.634 112.15C294.368 112.4 294.951 112.742 295.384 113.175C295.818 113.608 296.134 114.117 296.334 114.7C296.534 115.283 296.634 115.9 296.634 116.55V124.4C296.634 124.567 296.576 124.708 296.459 124.825C296.343 124.942 296.201 125 296.034 125H294.009C293.826 125 293.676 124.942 293.559 124.825C293.459 124.708 293.409 124.567 293.409 124.4V123.425C293.193 123.742 292.901 124.042 292.534 124.325C292.168 124.592 291.718 124.817 291.184 125C290.668 125.167 290.051 125.25 289.334 125.25ZM290.184 122.875C290.768 122.875 291.293 122.75 291.759 122.5C292.243 122.25 292.618 121.867 292.884 121.35C293.168 120.817 293.309 120.15 293.309 119.35V118.825L290.809 119.225C289.826 119.375 289.093 119.617 288.609 119.95C288.126 120.283 287.884 120.692 287.884 121.175C287.884 121.542 287.993 121.858 288.209 122.125C288.443 122.375 288.734 122.567 289.084 122.7C289.434 122.817 289.801 122.875 290.184 122.875ZM300.441 125C300.275 125 300.133 124.942 300.016 124.825C299.9 124.708 299.841 124.567 299.841 124.4V112.6C299.841 112.433 299.9 112.292 300.016 112.175C300.133 112.058 300.275 112 300.441 112H302.516C302.7 112 302.841 112.058 302.941 112.175C303.058 112.292 303.116 112.433 303.116 112.6V124.4C303.116 124.567 303.058 124.708 302.941 124.825C302.841 124.942 302.7 125 302.516 125H300.441ZM300.341 109.85C300.158 109.85 300.008 109.8 299.891 109.7C299.791 109.583 299.741 109.433 299.741 109.25V107.45C299.741 107.283 299.791 107.142 299.891 107.025C300.008 106.908 300.158 106.85 300.341 106.85H302.616C302.8 106.85 302.95 106.908 303.066 107.025C303.183 107.142 303.241 107.283 303.241 107.45V109.25C303.241 109.433 303.183 109.583 303.066 109.7C302.95 109.8 302.8 109.85 302.616 109.85H300.341ZM307.033 125C306.867 125 306.725 124.942 306.608 124.825C306.492 124.708 306.433 124.567 306.433 124.4V112.6C306.433 112.433 306.492 112.292 306.608 112.175C306.725 112.058 306.867 112 307.033 112H309.083C309.25 112 309.392 112.058 309.508 112.175C309.625 112.292 309.683 112.433 309.683 112.6V113.625C310.117 113.092 310.667 112.65 311.333 112.3C312.017 111.933 312.858 111.75 313.858 111.75C314.875 111.75 315.758 111.983 316.508 112.45C317.258 112.9 317.833 113.542 318.233 114.375C318.65 115.208 318.858 116.208 318.858 117.375V124.4C318.858 124.567 318.8 124.708 318.683 124.825C318.567 124.942 318.425 125 318.258 125H316.058C315.892 125 315.75 124.942 315.633 124.825C315.517 124.708 315.458 124.567 315.458 124.4V117.525C315.458 116.558 315.217 115.8 314.733 115.25C314.267 114.7 313.583 114.425 312.683 114.425C311.817 114.425 311.125 114.7 310.608 115.25C310.092 115.8 309.833 116.558 309.833 117.525V124.4C309.833 124.567 309.775 124.708 309.658 124.825C309.542 124.942 309.4 125 309.233 125H307.033ZM327.634 125.25C325.784 125.25 324.317 124.717 323.234 123.65C322.15 122.583 321.567 121.067 321.484 119.1C321.467 118.933 321.459 118.725 321.459 118.475C321.459 118.208 321.467 118 321.484 117.85C321.55 116.6 321.834 115.517 322.334 114.6C322.85 113.683 323.559 112.983 324.459 112.5C325.359 112 326.417 111.75 327.634 111.75C328.984 111.75 330.117 112.033 331.034 112.6C331.95 113.15 332.642 113.925 333.109 114.925C333.575 115.908 333.809 117.05 333.809 118.35V118.875C333.809 119.042 333.75 119.183 333.634 119.3C333.517 119.417 333.367 119.475 333.184 119.475H324.884C324.884 119.475 324.884 119.5 324.884 119.55C324.884 119.6 324.884 119.642 324.884 119.675C324.9 120.258 325.009 120.8 325.209 121.3C325.425 121.783 325.734 122.175 326.134 122.475C326.55 122.775 327.042 122.925 327.609 122.925C328.075 122.925 328.467 122.858 328.784 122.725C329.1 122.575 329.359 122.408 329.559 122.225C329.759 122.042 329.9 121.892 329.984 121.775C330.134 121.575 330.25 121.458 330.334 121.425C330.434 121.375 330.575 121.35 330.759 121.35H332.909C333.075 121.35 333.209 121.4 333.309 121.5C333.425 121.6 333.475 121.725 333.459 121.875C333.442 122.142 333.3 122.467 333.034 122.85C332.784 123.233 332.417 123.608 331.934 123.975C331.45 124.342 330.842 124.65 330.109 124.9C329.392 125.133 328.567 125.25 327.634 125.25ZM324.884 117.375H330.409V117.3C330.409 116.65 330.3 116.083 330.084 115.6C329.867 115.117 329.55 114.733 329.134 114.45C328.717 114.167 328.217 114.025 327.634 114.025C327.05 114.025 326.55 114.167 326.134 114.45C325.717 114.733 325.4 115.117 325.184 115.6C324.984 116.083 324.884 116.65 324.884 117.3V117.375ZM337.063 125C336.896 125 336.754 124.942 336.638 124.825C336.521 124.708 336.462 124.567 336.462 124.4V112.625C336.462 112.442 336.521 112.292 336.638 112.175C336.754 112.058 336.896 112 337.063 112H339.088C339.254 112 339.396 112.058 339.513 112.175C339.646 112.292 339.713 112.442 339.713 112.625V113.65C340.096 113.117 340.588 112.708 341.188 112.425C341.804 112.142 342.513 112 343.313 112H344.338C344.521 112 344.663 112.058 344.763 112.175C344.879 112.292 344.938 112.433 344.938 112.6V114.4C344.938 114.567 344.879 114.708 344.763 114.825C344.663 114.942 344.521 115 344.338 115H342.388C341.588 115 340.963 115.225 340.513 115.675C340.079 116.125 339.863 116.742 339.863 117.525V124.4C339.863 124.567 339.804 124.708 339.688 124.825C339.571 124.942 339.421 125 339.238 125H337.063Z" fill="#DA26B3"/>
</svg>
